<mxfile host="app.diagrams.net" modified="2023-08-12T07:19:32.859Z" agent="Mozilla/5.0 (Windows NT 10.0; Win64; x64) AppleWebKit/537.36 (KHTML, like Gecko) Chrome/115.0.0.0 Safari/537.36" etag="9O_sL7YCY_xDWvB6BOx8" version="21.6.6" type="device">
  <diagram name="Page-1" id="aicYLML59ERc7wo9QKz2">
    <mxGraphModel dx="955" dy="515" grid="1" gridSize="10" guides="1" tooltips="1" connect="1" arrows="1" fold="1" page="1" pageScale="1" pageWidth="850" pageHeight="1100" math="0" shadow="0">
      <root>
        <mxCell id="0" />
        <mxCell id="1" parent="0" />
        <mxCell id="OAb5hmV95R2HKtd-UMzW-2" value="&lt;b&gt;&lt;font style=&quot;font-size: 12px;&quot;&gt;&lt;i&gt;JAR FILES&lt;/i&gt;&lt;/font&gt;&lt;/b&gt;" style="edgeStyle=orthogonalEdgeStyle;rounded=0;orthogonalLoop=1;jettySize=auto;html=1;" edge="1" parent="1" source="OAb5hmV95R2HKtd-UMzW-1">
          <mxGeometry relative="1" as="geometry">
            <mxPoint x="330" y="163" as="targetPoint" />
          </mxGeometry>
        </mxCell>
        <mxCell id="OAb5hmV95R2HKtd-UMzW-1" value="CLIENT NODE" style="verticalLabelPosition=bottom;html=1;verticalAlign=top;strokeWidth=1;align=center;outlineConnect=0;dashed=0;outlineConnect=0;shape=mxgraph.aws3d.dataServer;strokeColor=#5E5E5E;aspect=fixed;" vertex="1" parent="1">
          <mxGeometry x="30" y="110" width="123" height="106" as="geometry" />
        </mxCell>
        <mxCell id="OAb5hmV95R2HKtd-UMzW-4" style="edgeStyle=orthogonalEdgeStyle;rounded=0;orthogonalLoop=1;jettySize=auto;html=1;" edge="1" parent="1" source="OAb5hmV95R2HKtd-UMzW-3">
          <mxGeometry relative="1" as="geometry">
            <mxPoint x="570" y="163" as="targetPoint" />
          </mxGeometry>
        </mxCell>
        <mxCell id="OAb5hmV95R2HKtd-UMzW-3" value="DRIVER PROGRAM" style="ellipse;whiteSpace=wrap;html=1;" vertex="1" parent="1">
          <mxGeometry x="330" y="123" width="120" height="80" as="geometry" />
        </mxCell>
        <mxCell id="OAb5hmV95R2HKtd-UMzW-6" style="edgeStyle=orthogonalEdgeStyle;rounded=0;orthogonalLoop=1;jettySize=auto;html=1;entryX=1;entryY=1;entryDx=0;entryDy=0;" edge="1" parent="1" source="OAb5hmV95R2HKtd-UMzW-5" target="OAb5hmV95R2HKtd-UMzW-3">
          <mxGeometry relative="1" as="geometry">
            <mxPoint x="480" y="190" as="targetPoint" />
            <Array as="points">
              <mxPoint x="526" y="190" />
              <mxPoint x="526" y="191" />
            </Array>
          </mxGeometry>
        </mxCell>
        <mxCell id="OAb5hmV95R2HKtd-UMzW-5" value="CLUSTER MANAGER" style="ellipse;whiteSpace=wrap;html=1;" vertex="1" parent="1">
          <mxGeometry x="570" y="123" width="120" height="80" as="geometry" />
        </mxCell>
        <mxCell id="OAb5hmV95R2HKtd-UMzW-8" value="SPARK MASTER" style="shape=trapezoid;perimeter=trapezoidPerimeter;whiteSpace=wrap;html=1;fixedSize=1;" vertex="1" parent="1">
          <mxGeometry x="330" y="90" width="120" height="30" as="geometry" />
        </mxCell>
        <mxCell id="OAb5hmV95R2HKtd-UMzW-19" value="" style="endArrow=none;dashed=1;html=1;dashPattern=1 3;strokeWidth=2;rounded=0;fillColor=#e51400;strokeColor=#B20000;" edge="1" parent="1" source="OAb5hmV95R2HKtd-UMzW-3" target="OAb5hmV95R2HKtd-UMzW-29">
          <mxGeometry width="50" height="50" relative="1" as="geometry">
            <mxPoint x="430" y="390" as="sourcePoint" />
            <mxPoint x="596.939058171745" y="498" as="targetPoint" />
          </mxGeometry>
        </mxCell>
        <mxCell id="OAb5hmV95R2HKtd-UMzW-20" value="" style="endArrow=none;dashed=1;html=1;dashPattern=1 3;strokeWidth=2;rounded=0;fontColor=#F70808;labelBorderColor=#F40B0B;labelBackgroundColor=#FA0000;fillColor=#e51400;strokeColor=#B20000;entryX=0;entryY=0;entryDx=35;entryDy=0;entryPerimeter=0;" edge="1" parent="1" source="OAb5hmV95R2HKtd-UMzW-3" target="OAb5hmV95R2HKtd-UMzW-27">
          <mxGeometry width="50" height="50" relative="1" as="geometry">
            <mxPoint x="280" y="216" as="sourcePoint" />
            <mxPoint x="448.4626038781164" y="498" as="targetPoint" />
          </mxGeometry>
        </mxCell>
        <mxCell id="OAb5hmV95R2HKtd-UMzW-21" value="" style="endArrow=none;dashed=1;html=1;dashPattern=1 3;strokeWidth=2;rounded=0;fontColor=#F70808;labelBorderColor=#F40B0B;labelBackgroundColor=#FA0000;fillColor=#e51400;strokeColor=#B20000;exitX=0;exitY=1;exitDx=0;exitDy=0;" edge="1" parent="1" source="OAb5hmV95R2HKtd-UMzW-25">
          <mxGeometry width="50" height="50" relative="1" as="geometry">
            <mxPoint x="239" y="213" as="sourcePoint" />
            <mxPoint x="295.3811881188119" y="498" as="targetPoint" />
          </mxGeometry>
        </mxCell>
        <mxCell id="OAb5hmV95R2HKtd-UMzW-22" value="" style="endArrow=none;dashed=1;html=1;dashPattern=1 3;strokeWidth=2;rounded=0;fontColor=#F70808;labelBorderColor=#F40B0B;labelBackgroundColor=#FA0000;fillColor=#e51400;strokeColor=#B20000;exitX=0;exitY=0.75;exitDx=0;exitDy=0;" edge="1" parent="1" source="OAb5hmV95R2HKtd-UMzW-23">
          <mxGeometry width="50" height="50" relative="1" as="geometry">
            <mxPoint x="171" y="130" as="sourcePoint" />
            <mxPoint x="142.9598588442875" y="498" as="targetPoint" />
          </mxGeometry>
        </mxCell>
        <mxCell id="OAb5hmV95R2HKtd-UMzW-24" value="" style="endArrow=none;dashed=1;html=1;dashPattern=1 3;strokeWidth=2;rounded=0;fontColor=#F70808;labelBorderColor=#F40B0B;labelBackgroundColor=#FA0000;fillColor=#e51400;strokeColor=#B20000;exitX=0;exitY=0.75;exitDx=0;exitDy=0;" edge="1" parent="1" source="OAb5hmV95R2HKtd-UMzW-8" target="OAb5hmV95R2HKtd-UMzW-23">
          <mxGeometry width="50" height="50" relative="1" as="geometry">
            <mxPoint x="335" y="112" as="sourcePoint" />
            <mxPoint x="142.9598588442875" y="498" as="targetPoint" />
          </mxGeometry>
        </mxCell>
        <mxCell id="OAb5hmV95R2HKtd-UMzW-23" value="" style="shape=cube;whiteSpace=wrap;html=1;boundedLbl=1;backgroundOutline=1;darkOpacity=0.05;darkOpacity2=0.1;" vertex="1" parent="1">
          <mxGeometry x="100" y="470" width="90" height="60" as="geometry" />
        </mxCell>
        <mxCell id="OAb5hmV95R2HKtd-UMzW-26" value="" style="endArrow=none;dashed=1;html=1;dashPattern=1 3;strokeWidth=2;rounded=0;fontColor=#F70808;labelBorderColor=#F40B0B;labelBackgroundColor=#FA0000;fillColor=#e51400;strokeColor=#B20000;exitX=0;exitY=1;exitDx=0;exitDy=0;" edge="1" parent="1" source="OAb5hmV95R2HKtd-UMzW-8" target="OAb5hmV95R2HKtd-UMzW-25">
          <mxGeometry width="50" height="50" relative="1" as="geometry">
            <mxPoint x="330" y="120" as="sourcePoint" />
            <mxPoint x="295.3811881188119" y="498" as="targetPoint" />
          </mxGeometry>
        </mxCell>
        <mxCell id="OAb5hmV95R2HKtd-UMzW-25" value="" style="shape=cube;whiteSpace=wrap;html=1;boundedLbl=1;backgroundOutline=1;darkOpacity=0.05;darkOpacity2=0.1;" vertex="1" parent="1">
          <mxGeometry x="250" y="470" width="90" height="60" as="geometry" />
        </mxCell>
        <mxCell id="OAb5hmV95R2HKtd-UMzW-28" value="&lt;b&gt;TASK&lt;/b&gt;" style="edgeStyle=orthogonalEdgeStyle;rounded=0;orthogonalLoop=1;jettySize=auto;html=1;exitX=0.5;exitY=1;exitDx=0;exitDy=0;" edge="1" parent="1" source="OAb5hmV95R2HKtd-UMzW-5" target="OAb5hmV95R2HKtd-UMzW-27">
          <mxGeometry relative="1" as="geometry">
            <mxPoint x="630" y="203" as="sourcePoint" />
            <mxPoint x="453" y="498" as="targetPoint" />
            <Array as="points">
              <mxPoint x="630" y="204" />
            </Array>
          </mxGeometry>
        </mxCell>
        <mxCell id="OAb5hmV95R2HKtd-UMzW-27" value="" style="shape=cube;whiteSpace=wrap;html=1;boundedLbl=1;backgroundOutline=1;darkOpacity=0.05;darkOpacity2=0.1;" vertex="1" parent="1">
          <mxGeometry x="410" y="470" width="90" height="60" as="geometry" />
        </mxCell>
        <mxCell id="OAb5hmV95R2HKtd-UMzW-30" value="&lt;b&gt;&lt;i&gt;TASK&lt;/i&gt;&lt;/b&gt;" style="edgeStyle=orthogonalEdgeStyle;rounded=0;orthogonalLoop=1;jettySize=auto;html=1;entryX=0;entryY=0;entryDx=70;entryDy=0;entryPerimeter=0;" edge="1" parent="1" source="OAb5hmV95R2HKtd-UMzW-5" target="OAb5hmV95R2HKtd-UMzW-29">
          <mxGeometry relative="1" as="geometry">
            <mxPoint x="630" y="203" as="sourcePoint" />
            <mxPoint x="613" y="498" as="targetPoint" />
          </mxGeometry>
        </mxCell>
        <mxCell id="OAb5hmV95R2HKtd-UMzW-29" value="" style="shape=cube;whiteSpace=wrap;html=1;boundedLbl=1;backgroundOutline=1;darkOpacity=0.05;darkOpacity2=0.1;" vertex="1" parent="1">
          <mxGeometry x="560" y="470" width="90" height="60" as="geometry" />
        </mxCell>
        <mxCell id="OAb5hmV95R2HKtd-UMzW-34" value="Executor" style="swimlane;startSize=0;" vertex="1" parent="1">
          <mxGeometry x="428" y="500" width="70" height="20" as="geometry" />
        </mxCell>
        <mxCell id="OAb5hmV95R2HKtd-UMzW-35" value="Executor" style="swimlane;startSize=0;" vertex="1" parent="1">
          <mxGeometry x="579" y="503" width="70" height="20" as="geometry" />
        </mxCell>
        <mxCell id="OAb5hmV95R2HKtd-UMzW-36" value="" style="endArrow=none;dashed=1;html=1;dashPattern=1 3;strokeWidth=2;rounded=0;fillColor=#e51400;strokeColor=#B20000;" edge="1" parent="1">
          <mxGeometry width="50" height="50" relative="1" as="geometry">
            <mxPoint x="20" y="740" as="sourcePoint" />
            <mxPoint x="19.999999999999886" y="740" as="targetPoint" />
          </mxGeometry>
        </mxCell>
        <mxCell id="OAb5hmV95R2HKtd-UMzW-38" value="W1" style="text;html=1;strokeColor=none;fillColor=none;align=center;verticalAlign=middle;whiteSpace=wrap;rounded=0;" vertex="1" parent="1">
          <mxGeometry x="120" y="530" width="60" height="30" as="geometry" />
        </mxCell>
        <mxCell id="OAb5hmV95R2HKtd-UMzW-39" value="W2" style="text;html=1;strokeColor=none;fillColor=none;align=center;verticalAlign=middle;whiteSpace=wrap;rounded=0;" vertex="1" parent="1">
          <mxGeometry x="270" y="530" width="60" height="30" as="geometry" />
        </mxCell>
        <mxCell id="OAb5hmV95R2HKtd-UMzW-40" value="W3" style="text;html=1;strokeColor=none;fillColor=none;align=center;verticalAlign=middle;whiteSpace=wrap;rounded=0;" vertex="1" parent="1">
          <mxGeometry x="440" y="535" width="60" height="30" as="geometry" />
        </mxCell>
        <mxCell id="OAb5hmV95R2HKtd-UMzW-41" value="W4&lt;span style=&quot;white-space: pre;&quot;&gt;&#x9;&lt;/span&gt;" style="text;html=1;strokeColor=none;fillColor=none;align=center;verticalAlign=middle;whiteSpace=wrap;rounded=0;" vertex="1" parent="1">
          <mxGeometry x="590" y="535" width="60" height="30" as="geometry" />
        </mxCell>
      </root>
    </mxGraphModel>
  </diagram>
</mxfile>
